<svg xmlns="http://www.w3.org/2000/svg" width="10" height="24" viewBox="0 0 10 24" version="1.1"><g stroke="none" stroke-width="1" fill="none" fill-rule="evenodd"><g transform="translate(-310.000000, -659.000000)" fill="#333333"><g transform="translate(165.000000, 95.000000)"><g transform="translate(40.000000, 511.000000)"><g transform="translate(40.000000, 11.000000)"><path d="M71 50L71 51.5C71 51.9 71.2 52.1 72.1 52.7 73.4 53.6 74 54.2 74 55.5 74 56.9 73.2 57.5 70.4 58.9 68.7 59.8 68 60.3 68 60.5 68 61.4 68.8 62.5 70.6 63.7L71 64 71 66 69 66 69 65C67 63.6 66 62.1 66 60.5 66 59.1 66.8 58.5 69.6 57.1 71.3 56.2 72 55.7 72 55.5 72 55.1 71.8 54.9 70.9 54.3 69.6 53.4 69 52.8 69 51.5L69 50 65 50 70 42 75 50 71 50Z"/></g></g></g></g></g></svg>