
<svg viewBox="0 -2 32 32" version="1.1" xmlns="http://www.w3.org/2000/svg" xmlns:xlink="http://www.w3.org/1999/xlink">
  <defs>
    <linearGradient x1="40.5484667%" y1="14.2221226%" x2="65.1919248%" y2="77.8861441%" id="linearGradient-1">
      <stop stop-color="#ffffff" stop-opacity="0" offset="0%"></stop>
      <stop stop-color="#dddddd" offset="100%"></stop>
    </linearGradient>
    <circle id="path-2" cx="12" cy="12" r="12"></circle>

    <polygon points="7 15 8 15 8 12 9 9 10 9 10 6 12 0 14 0 16 6 16 9 17 9 18 12 18 15 19 15 24 15 26 21 0 21 2 15"/>
    <radialGradient id="shadow" gradientUnits="userSpaceOnUse" cx="12" cy="13" r="14">
      <stop offset="0.2" style="stop-color:#000;stop-opacity: 0.3"></stop>
      <stop offset="1" style="stop-color:#000;stop-opacity: 0"></stop>
    </radialGradient>
  </defs>

  <ellipse transform="translate(6, 4)" cx="24" cy="24" rx="24" ry="24" style="fill: url(#shadow)"></ellipse>
  <circle id="js-main-color" cx="16.5" cy="15" r="13.5" fill="none"/>
  <g  transform="translate(-232, -235)">
    <g transform="translate(165, 95)">
      <g  transform="translate(40, 16)">
        <g transform="translate(43.825318, 138.642305) rotate(-30) translate(-43.825318, -138.642305) translate(31.325318, 126.642305)">
          <use fill="#FFFFFF" fill-rule="evenodd" xlink:href="#path-2"></use>
          <use fill-opacity="0.1" fill="url(#linearGradient-1)" fill-rule="evenodd" style="mix-blend-mode: multiply;" xlink:href="#path-2"></use>
          <path d="M15,21.88 L14,20.15 C14.25,19.4 14.67,17.91 14.87,17.15 L19.57,14.69 L19.88,14.84 L19.94,14.84 C20.46,15.11 21.04,15.46 21.45,15.72 L23.07,16.72 C24.2188618,14.0469718 24.3574591,11.0475857 23.46,8.28 L21.16,9.06 C20.76,9.22 20.29,9.37 19.89,9.49 L19.6,9.57 L14.89,6.77 C14.6567926,5.79479618 14.3594799,4.83604614 14,3.9 L14.2,3.62 L16.27,0.78 C16.04,0.69 15.81,0.61 15.57,0.54 L14.52,2 L13.41,3.5 C12.3589369,3.36105288 11.2955682,3.34092603 10.24,3.44 L9.07,2.08 L7.89,0.72 L7.19,1 L9.37,3.47 L9.57,3.7 C8.80981398,4.40707919 8.2008809,5.26094625 7.78,6.21 L3.55,9 L3.43,8.89 L1.23,6.71 C-0.354397489,9.94543258 -0.409416834,13.7197596 1.08,17 L2.48,15.4 C2.73,15.08 3.08,14.69 3.36,14.4 L3.49,14.25 L7.57,16.9 C7.82796621,17.9829213 8.30063131,19.0030618 8.96,19.9 L7.89,21.47 L6.89,22.88 L7.57,23.17 L8.57,21.74 L9.23,20.74 L9.55,20.27 C10.8187844,20.5562515 12.1218272,20.6606296 13.42,20.58 L13.6,20.87 L14.3,22.02 L15.2,23.52 L15.9,23.3 L15,21.88 Z M10.53,14.54 C9.83,15.03 8.53,15.85 7.86,16.25 L3.62,13.45 C3.35410673,12.2036484 3.38493601,10.9122439 3.71,9.68 L7.84,7 C8.43,7.43 9.84,8.48 10.55,9 L10.53,14.54 Z M11.23,14.54 L11.23,9.12 C12.270788,8.458787 13.3765568,7.90590263 14.53,7.47 L19.2,10.24 C19.4220726,11.5271584 19.4220726,12.8428416 19.2,14.13 L14.44,16.63 C13.3102491,16.0144428 12.2361989,15.3017552 11.23,14.5 L11.23,14.54 Z" fill="#333333"></path>
        </g>
      </g>
    </g>
  </g>
</svg>
