<!-- modified to fix shadow -->
<svg width="40px" height="49px" viewBox="0 0 40 49" version="1.1" xmlns="http://www.w3.org/2000/svg" xmlns:xlink="http://www.w3.org/1999/xlink">
    <defs>
        <radialGradient id="SVGID_26" gradientUnits="userSpaceOnUse" cx="20" cy="50" r="25" >
          <stop offset="0" style="stop-color:rgb(100,100,100);stop-opacity: 0.175"></stop>
          <stop offset="0.6" style="stop-color:rgb(0,0,0);stop-opacity: 0"></stop>
        </radialGradient>
    </defs>

    <g transform="translate(-236.000000, -388.000000)">
        <g transform="translate(165.000000, 95.000000)">

            <g transform="translate(40.000000, 227.000000)">
                <g transform="translate(31.000000, 66.000000)">
                    <path d="M9,13 L9,34.25 C11.3754037,35.4166667 15.0420703,36 20,36 C24.9579297,36 28.6245963,35.4166667 31,34.25 L31,13 L35,15 L40,7 L29,0 L24.75,0 C24.0833333,2 22.5,3 20,3 C17.5,3 15.9166667,2 15.25,0 L11,0 L0,7 L5,15 L9,13 Z" id="js-main-color" fill="#F36C21"></path>
                    <ellipse cx="20" cy="44" rx="12" ry="3" style="fill: url(#SVGID_26)"></ellipse>
                </g>
            </g>

        </g>
    </g>

</svg>