<svg xmlns="http://www.w3.org/2000/svg" width="12" height="14" viewBox="0 0 12 14" version="1.1"><g stroke="none" stroke-width="1" fill="none" fill-rule="evenodd"><g transform="translate(-1107.000000, -745.000000)" fill="#333333"><g transform="translate(165.000000, 95.000000)"><g transform="translate(495.000000, 0.000000)"><g transform="translate(0.000000, 621.000000)"><g transform="translate(376.000000, 13.000000)"><path d="M81 24C81 26.2 79.2 28 77 28 74.8 28 73 26.2 73 24 73 21.8 74.8 20 77 20L77 22 81 19 77 16 77 18C73.7 18 71 20.7 71 24 71 27.3 73.7 30 77 30 80.3 30 83 27.3 83 24L81 24Z"/></g></g></g></g></g></g></svg>