<svg xmlns="http://www.w3.org/2000/svg" width="86" height="21" viewBox="0 0 86 21" version="1.1">
<g stroke="none" stroke-width="1" fill="none" fill-rule="evenodd">
<g transform="translate(-352.000000, -464.000000)">
<g transform="translate(165.000000, 95.000000)">
<g transform="translate(40.000000, 227.000000)">
<g transform="translate(147.000000, 142.000000)">
<path d="M3 21L22 2" stroke-opacity="0.85" stroke="#DDDDDD"/>
<path d="M11 21L30 2" stroke-opacity="0.85" stroke="#DDDDDD"/>
<path d="M19 21L38 2" stroke-opacity="0.85" stroke="#DDDDDD"/>
<path d="M27 21L46 2" stroke-opacity="0.85" stroke="#DDDDDD"/>
<path d="M35 21L54 2" stroke-opacity="0.85" stroke="#DDDDDD"/>
<path d="M43 21L62 2" stroke-opacity="0.85" stroke="#DDDDDD"/>
<path d="M51 21L70 2" stroke-opacity="0.85" stroke="#DDDDDD"/>
<path d="M2 14C2 14 6 10 14 2" stroke-opacity="0.85" stroke="#DDDDDD"/>
<path d="M59 21C59 21 65.33 14.67 78 2" stroke-opacity="0.85" stroke="#DDDDDD"/>
<path d="M67 21C67 21 72.67 15.33 84 4" stroke-opacity="0.85" stroke="#DDDDDD"/>
<path d="M75 21C75 21 78 18 84 12" stroke-opacity="0.85" stroke="#DDDDDD"/>
<path d="M2 6C2 6 3.33 4.67 6 2" stroke-opacity="0.85" stroke="#DDDDDD"/>
<path d="M84 6C84 6 82.67 4.67 80 2" stroke-opacity="0.85" stroke="#DDDDDD"/>
<path d="M84 14C84 14 80 10 72 2" stroke-opacity="0.85" stroke="#DDDDDD"/>
<path d="M83 21C83 21 76.67 14.67 64 2" stroke-opacity="0.85" stroke="#DDDDDD"/>
<path d="M75 21C75 21 68.67 14.67 56 2" stroke-opacity="0.85" stroke="#DDDDDD"/>
<path d="M67 21C67 21 60.67 14.67 48 2" stroke-opacity="0.85" stroke="#DDDDDD"/>
<path d="M59 21C59 21 52.67 14.67 40 2" stroke-opacity="0.85" stroke="#DDDDDD"/>
<path d="M51 21C51 21 44.67 14.67 32 2" stroke-opacity="0.85" stroke="#DDDDDD"/>
<path d="M43 21C43 21 36.67 14.67 24 2" stroke-opacity="0.85" stroke="#DDDDDD"/>
<path d="M35 21C35 21 28.67 14.67 16 2" stroke-opacity="0.85" stroke="#DDDDDD"/>
<path d="M27 21C27 21 20.67 14.67 8 2" stroke-opacity="0.85" stroke="#DDDDDD"/>
<path d="M19 21C19 21 13.33 15.33 2 4" stroke-opacity="0.85" stroke="#DDDDDD"/>
<path d="M11 21C11 21 8 18 2 12" stroke-opacity="0.85" stroke="#DDDDDD"/>
<path id="js-main-color" d="M3 0L83 0C84.66 0 86 1.34 86 3L86 21 83 21 83 3 3 3 3 21 0 21 0 3C0 1.34 1.34 0 3 0Z" fill="#FFFFFF"/>
<polygon fill="#F2F2F2" points="3 21 2 21 2 2 84 2 84 21 83 21 83 3 3 3"/>
</g>
</g>
</g>
</g>
</g>
</svg>