<svg xmlns="http://www.w3.org/2000/svg" width="46" height="21" viewBox="0 0 46 21" version="1.1">
<g  stroke="none" stroke-width="1" fill="none" fill-rule="evenodd">
<g transform="translate(-468.000000, -464.000000)">
<g transform="translate(165.000000, 95.000000)">
<g transform="translate(40.000000, 227.000000)">
<g transform="translate(263.000000, 142.000000)">
<path d="M3 21L22 2" stroke-opacity="0.85" stroke="#DDDDDD"/>
<path d="M11 21L30 2" stroke-opacity="0.85" stroke="#DDDDDD"/>
<path d="M19 21L38 2" stroke-opacity="0.85" stroke="#DDDDDD"/>
<path d="M27 21L44 4" stroke-opacity="0.85" stroke="#DDDDDD"/>
<path d="M35 21L44 12" stroke-opacity="0.85" stroke="#DDDDDD"/>
<path d="M2 14C2 14 6 10 14 2" stroke-opacity="0.85" stroke="#DDDDDD"/>
<path d="M2 6C2 6 3.33 4.67 6 2" stroke-opacity="0.85" stroke="#DDDDDD"/>
<path d="M44 6C44 6 42.67 4.67 40 2" stroke-opacity="0.85" stroke="#DDDDDD"/>
<path d="M44 14C44 14 40 10 32 2" stroke-opacity="0.85" stroke="#DDDDDD"/>
<path d="M43 21C43 21 36.67 14.67 24 2" stroke-opacity="0.85" stroke="#DDDDDD"/>
<path d="M35 21C35 21 28.67 14.67 16 2" stroke-opacity="0.85" stroke="#DDDDDD"/>
<path d="M27 21C27 21 20.67 14.67 8 2" stroke-opacity="0.85" stroke="#DDDDDD"/>
<path d="M19 21C19 21 13.33 15.33 2 4" stroke-opacity="0.85" stroke="#DDDDDD"/>
<path d="M11 21C11 21 8 18 2 12" stroke-opacity="0.85" stroke="#DDDDDD"/>
<path id="js-main-color" d="M3 0L43 0C44.66 0 46 1.34 46 3L46 21 43 21 43 3 3 3 3 21 0 21 0 3C0 1.34 1.34 0 3 0Z" fill="#FFFFFF"/>
<polygon fill="#F2F2F2" points="3 21 2 21 2 2 44 2 44 21 43 21 43 3 3 3"/>
</g>
</g>
</g>
</g>
</g>
</svg>